<svg width="290" height="268" viewBox="0 0 290 268" fill="none" xmlns="http://www.w3.org/2000/svg">
<g clip-path="url(#clip0_123_343)">
<path d="M251.477 39.0918C272.844 39.092 290.165 56.4133 290.165 77.7803V229.312C290.165 250.679 272.844 268 251.477 268H38.6885C17.3214 268 0.000129924 250.679 0 229.312V77.7803C9.63946e-05 56.4132 17.3213 39.0918 38.6885 39.0918H57.3262L67.792 60.0479H37.4795C28.1313 60.0479 20.5527 67.6265 20.5527 76.9746V229.714C20.5527 239.062 28.1313 246.641 37.4795 246.641H252.686C262.034 246.64 269.611 239.062 269.611 229.714V76.9746C269.611 67.6265 262.034 60.048 252.686 60.0479H222.364L232.643 39.0918H251.477Z" fill="#FD6161"/>
<path d="M92.2881 0L146.896 108.812L201.503 0H233.341L146.896 164.024L60.4512 0H92.2881Z" fill="#FC6262"/>
<circle cx="242.853" cy="218.5" r="13.5" fill="#FC6262"/>
</g>
<defs>
<clipPath id="clip0_123_343">
<rect width="290" height="268" fill="white"/>
</clipPath>
</defs>
</svg>
