<svg width="290" height="268" viewBox="0 0 290 268" fill="none" xmlns="http://www.w3.org/2000/svg">
<g clip-path="url(#clip0_124_352)">
<path d="M224.812 21H68.1875C65.2204 21 62.3748 19.8411 60.2767 17.7782C58.1787 15.7153 57 12.9174 57 10C57 7.08262 58.1787 4.28473 60.2767 2.22183C62.3748 0.158927 65.2204 -1 68.1875 -1H224.812C227.78 -1 230.625 0.158927 232.723 2.22183C234.821 4.28473 236 7.08262 236 10C236 12.9174 234.821 15.7153 232.723 17.7782C230.625 19.8411 227.78 21 224.812 21Z" fill="black"/>
<path d="M246.75 56H44.25C41.2663 56 38.4048 54.7357 36.2951 52.4853C34.1853 50.2348 33 47.1826 33 44C33 40.8174 34.1853 37.7652 36.2951 35.5147C38.4048 33.2643 41.2663 32 44.25 32H246.75C249.734 32 252.595 33.2643 254.705 35.5147C256.815 37.7652 258 40.8174 258 44C258 47.1826 256.815 50.2348 254.705 52.4853C252.595 54.7357 249.734 56 246.75 56Z" fill="black"/>
<path d="M259.613 268H31.3874C23.0658 267.991 15.0877 264.688 9.20339 258.818C3.31911 252.947 0.00925757 244.987 0 236.684V98.3155C0.00925757 90.013 3.31911 82.0531 9.20339 76.1823C15.0877 70.3115 23.0658 67.0092 31.3874 67H259.613C267.934 67.0092 275.912 70.3115 281.797 76.1823C287.681 82.0531 290.991 90.013 291 98.3155V236.684C290.991 244.987 287.681 252.947 281.797 258.818C275.912 264.688 267.934 267.991 259.613 268V268Z" fill="black"/>
</g>
<defs>
<clipPath id="clip0_124_352">
<rect width="290" height="268" fill="white"/>
</clipPath>
</defs>
</svg>
