<svg width="248" height="230" viewBox="0 0 248 230" fill="none" xmlns="http://www.w3.org/2000/svg">
<g clip-path="url(#clip0_124_352)">
<path d="M184.748 39.965H64.3959C62.1159 39.965 59.9294 39.0713 58.3172 37.4805C56.705 35.8897 55.7993 33.7322 55.7993 31.4825C55.7993 29.2328 56.705 27.0752 58.3172 25.4845C59.9294 23.8937 62.1159 23 64.3959 23H184.748C187.028 23 189.214 23.8937 190.826 25.4845C192.439 27.0752 193.344 29.2328 193.344 31.4825C193.344 33.7322 192.439 35.8897 190.826 37.4805C189.214 39.0713 187.028 39.965 184.748 39.965Z" fill="black"/>
<path d="M201.604 66.9546H46.002C43.7093 66.9546 41.5105 65.9797 39.8894 64.2443C38.2682 62.5089 37.3574 60.1552 37.3574 57.701C37.3574 55.2468 38.2682 52.8931 39.8894 51.1577C41.5105 49.4223 43.7093 48.4474 46.002 48.4474H201.604C203.897 48.4474 206.096 49.4223 207.717 51.1577C209.338 52.8931 210.249 55.2468 210.249 57.701C210.249 60.1552 209.338 62.5089 207.717 64.2443C206.096 65.9797 203.897 66.9546 201.604 66.9546Z" fill="black"/>
<path d="M211.488 230.436H36.1183C29.7239 230.428 23.5935 227.882 19.072 223.355C14.5504 218.828 12.0071 212.689 12 206.287V99.5858C12.0071 93.1834 14.5504 87.0452 19.072 82.5181C23.5935 77.9909 29.7239 75.4444 36.1183 75.4373H211.488C217.883 75.4444 224.013 77.9909 228.535 82.5181C233.056 87.0452 235.599 93.1834 235.607 99.5858V206.287C235.599 212.689 233.056 218.828 228.535 223.355C224.013 227.882 217.883 230.428 211.488 230.436V230.436Z" fill="black"/>
</g>
<defs>
<clipPath id="clip0_124_352">
<rect width="248" height="230" fill="white"/>
</clipPath>
</defs>
</svg>
