<svg width="248" height="230" viewBox="0 0 248 230" fill="none" xmlns="http://www.w3.org/2000/svg">
<path d="M204.667 42.6105C220.867 42.6105 234 55.7309 234 71.9158V186.695C234 202.88 220.867 216 204.667 216H43.3333C27.133 216 14 202.88 14 186.695V71.9158C14 55.7309 27.133 42.6105 43.3333 42.6105H57.465L65.4002 58.4842H42.4167C35.329 58.4842 29.5833 64.2244 29.5833 71.3053V187C29.5833 194.081 35.329 199.821 42.4167 199.821H205.583C212.671 199.821 218.417 194.081 218.417 187V71.3053C218.417 64.2244 212.671 58.4842 205.583 58.4842H182.594L190.388 42.6105H204.667Z" fill="#FD6161"/>
<path d="M83.9722 13L125.375 95.4211L166.778 13H190.917L125.375 137.242L59.8333 13H83.9722Z" fill="#FD6161"/>
<path d="M208.639 179.577C208.639 184.857 204.355 189.137 199.069 189.137C193.784 189.137 189.5 184.857 189.5 179.577C189.5 174.297 193.784 170.016 199.069 170.016C204.355 170.016 208.639 174.297 208.639 179.577Z" fill="#FD6161"/>
</svg>
