<svg width="248" height="230" viewBox="0 0 248 230" fill="none" xmlns="http://www.w3.org/2000/svg">
<path d="M119.919 126.5C130.134 126.5 140.12 123.465 148.613 117.779C157.107 112.092 163.727 104.01 167.636 94.5539C171.545 85.0978 172.568 74.6926 170.575 64.6541C168.582 54.6156 163.663 45.3946 156.44 38.1572C149.217 30.9199 140.014 25.9912 129.995 23.9944C119.976 21.9976 109.591 23.0224 100.154 26.9393C90.7162 30.8561 82.6498 37.489 76.9746 45.9993C71.2993 54.5095 68.2702 64.5148 68.2702 74.75C68.2702 88.475 73.7118 101.638 83.3977 111.343C93.0837 121.048 106.221 126.5 119.919 126.5ZM119.919 141.286C87.9059 141.286 24 161.099 24 200.429V230H215.838V200.429C215.838 161.099 151.932 141.286 119.919 141.286Z" fill="black"/>
</svg>
