<svg width="248" height="230" viewBox="0 0 248 230" fill="none" xmlns="http://www.w3.org/2000/svg">
<path d="M207 52.3124C223.569 52.3124 237 65.744 237 82.3124V199.813C237 216.382 223.568 229.813 207 229.813H42C25.4315 229.813 12.0002 216.382 12 199.813V82.3124C12.0001 65.744 25.4315 52.3124 42 52.3124H56.4531L64.5684 68.5624H41.0625C33.8138 68.5624 27.9376 74.4388 27.9375 81.6874V200.126C27.9377 207.375 33.8139 213.251 41.0625 213.251H207.938C215.186 213.251 221.062 207.375 221.062 200.126V81.6874C221.062 74.4388 215.186 68.5624 207.938 68.5624H184.426L192.396 52.3124H207Z" fill="black"/>
<path d="M83.562 22L125.906 106.375L168.25 22H192.937L125.906 149.188L58.8745 22H83.562Z" fill="black"/>
<circle cx="200.224" cy="191.487" r="10.2203" fill="black"/>
</svg>
